%FSLAX25Y25*%
%MOIN*%
G70*
G01*
G75*
G04 Layer_Color=16711935*
%ADD10R,0.03600X0.03600*%
%ADD11R,0.03600X0.03600*%
%ADD12R,0.07087X0.07480*%
%ADD13R,0.01575X0.05315*%
%ADD14R,0.08268X0.06299*%
%ADD15R,0.25787X0.25787*%
%ADD16O,0.01378X0.03937*%
%ADD17O,0.03937X0.01378*%
%ADD18R,0.02200X0.02200*%
%ADD19R,0.01181X0.03937*%
%ADD20R,0.01969X0.03150*%
%ADD21R,0.04724X0.07874*%
%ADD22R,0.04528X0.02953*%
%ADD23R,0.03740X0.05512*%
%ADD24R,0.02362X0.06299*%
%ADD25R,0.02362X0.07087*%
%ADD26C,0.00600*%
%ADD27C,0.01500*%
%ADD28C,0.01000*%
%ADD29C,0.00800*%
%ADD30C,0.01200*%
%ADD31C,0.03500*%
%ADD32C,0.01300*%
%ADD33C,0.02500*%
%ADD34C,0.02300*%
%ADD35C,0.02000*%
%ADD36C,0.05906*%
%ADD37R,0.05906X0.05906*%
%ADD38C,0.02500*%
%ADD39R,0.02200X0.02200*%
%ADD40R,0.03937X0.01260*%
%ADD41R,0.01260X0.03937*%
%ADD42R,0.09449X0.09449*%
%ADD43R,0.01963X0.04400*%
%ADD44R,0.03700X0.01600*%
%ADD45C,0.00984*%
%ADD46C,0.00787*%
%ADD47R,0.04400X0.04400*%
%ADD48R,0.04400X0.04400*%
%ADD49R,0.07887X0.08280*%
%ADD50R,0.02375X0.06115*%
%ADD51R,0.09068X0.07099*%
%ADD52R,0.26587X0.26587*%
%ADD53O,0.02178X0.04737*%
%ADD54O,0.04737X0.02178*%
%ADD55R,0.03000X0.03000*%
%ADD56R,0.01981X0.04737*%
%ADD57R,0.02769X0.03950*%
%ADD58R,0.05524X0.08674*%
%ADD59R,0.05328X0.03753*%
%ADD60R,0.04540X0.06312*%
%ADD61R,0.03162X0.07099*%
%ADD62R,0.03162X0.07887*%
%ADD63C,0.06706*%
%ADD64R,0.06706X0.06706*%
%ADD65R,0.03000X0.03000*%
%ADD66R,0.04737X0.02060*%
%ADD67R,0.02060X0.04737*%
%ADD68R,0.10249X0.10249*%
D26*
X-7901Y69406D02*
Y71406D01*
Y70406D01*
X-13899D01*
X-12899Y69406D01*
Y74405D02*
X-13899Y75404D01*
Y77403D01*
X-12899Y78403D01*
X-11900D01*
X-10900Y77403D01*
X-9900Y78403D01*
X-8901D01*
X-7901Y77403D01*
Y75404D01*
X-8901Y74405D01*
X-9900D01*
X-10900Y75404D01*
X-11900Y74405D01*
X-12899D01*
X-10900Y75404D02*
Y77403D01*
X-12899Y80403D02*
X-13899Y81402D01*
Y83402D01*
X-12899Y84401D01*
X-8901D01*
X-7901Y83402D01*
Y81402D01*
X-8901Y80403D01*
X-12899D01*
Y86401D02*
X-13899Y87400D01*
Y89400D01*
X-12899Y90399D01*
X-8901D01*
X-7901Y89400D01*
Y87400D01*
X-8901Y86401D01*
X-12899D01*
X-7901Y92399D02*
X-8901D01*
Y93398D01*
X-7901D01*
Y92399D01*
X-12899Y97397D02*
X-13899Y98397D01*
Y100396D01*
X-12899Y101396D01*
X-8901D01*
X-7901Y100396D01*
Y98397D01*
X-8901Y97397D01*
X-12899D01*
Y103395D02*
X-13899Y104395D01*
Y106394D01*
X-12899Y107394D01*
X-8901D01*
X-7901Y106394D01*
Y104395D01*
X-8901Y103395D01*
X-12899D01*
D28*
X-12500Y180000D02*
X-1400D01*
X-12500Y0D02*
X8606D01*
X-11500Y108994D02*
Y180000D01*
Y0D02*
Y67806D01*
X-13500Y174000D02*
X-11500Y180000D01*
X-9500Y174000D01*
X-11500Y0D02*
X-9500Y6000D01*
X-13500D02*
X-11500Y0D01*
M02*
