%FSLAX25Y25*%
%MOIN*%
G70*
G01*
G75*
G04 Layer_Physical_Order=4*
G04 Layer_Color=16711680*
%ADD10R,0.03600X0.03600*%
%ADD11R,0.03600X0.03600*%
%ADD12R,0.07087X0.07480*%
%ADD13R,0.01575X0.05315*%
%ADD14R,0.08268X0.06299*%
%ADD15R,0.25787X0.25787*%
%ADD16O,0.01378X0.03937*%
%ADD17O,0.03937X0.01378*%
%ADD18R,0.02200X0.02200*%
%ADD19R,0.01181X0.03937*%
%ADD20R,0.01969X0.03150*%
%ADD21R,0.04724X0.07874*%
%ADD22R,0.04528X0.02953*%
%ADD23R,0.03740X0.05512*%
%ADD24R,0.02362X0.06299*%
%ADD25R,0.02362X0.07087*%
%ADD26C,0.00600*%
%ADD27C,0.01500*%
%ADD28C,0.01000*%
%ADD29C,0.00800*%
%ADD30C,0.01200*%
%ADD31C,0.03500*%
%ADD32C,0.01300*%
%ADD33C,0.02500*%
%ADD34C,0.02300*%
%ADD35C,0.02000*%
%ADD36C,0.05906*%
%ADD37R,0.05906X0.05906*%
%ADD38C,0.02500*%
%ADD39R,0.02200X0.02200*%
%ADD40R,0.03937X0.01260*%
%ADD41R,0.01260X0.03937*%
%ADD42R,0.09449X0.09449*%
%ADD43R,0.01963X0.04400*%
%ADD44R,0.03700X0.01600*%
G36*
X74000Y35000D02*
X68500D01*
Y38000D01*
X74000D01*
Y35000D01*
D02*
G37*
G36*
X58582Y106000D02*
X58582Y106000D01*
X58582D01*
X58652Y105649D01*
X58851Y105351D01*
X61582Y102620D01*
Y99341D01*
X43839D01*
Y124341D01*
X58582D01*
Y106000D01*
D02*
G37*
G36*
X68839Y99341D02*
X63418D01*
Y103000D01*
X63348Y103351D01*
X63149Y103649D01*
X60418Y106380D01*
Y124341D01*
X68839D01*
Y99341D01*
D02*
G37*
D10*
X56339Y129841D02*
D03*
X56339Y124341D02*
D03*
X58839Y95341D02*
D03*
Y100841D02*
D03*
X38313Y146500D02*
D03*
Y141000D02*
D03*
X62997Y146624D02*
D03*
Y141124D02*
D03*
D11*
X22839Y95341D02*
D03*
X28339D02*
D03*
X22339Y117341D02*
D03*
X27839D02*
D03*
X39839Y112341D02*
D03*
X45339Y112341D02*
D03*
X72839Y114841D02*
D03*
X67339D02*
D03*
X72839Y109841D02*
D03*
X67339Y109841D02*
D03*
X32500Y25500D02*
D03*
X27000D02*
D03*
X32500Y30500D02*
D03*
X27000D02*
D03*
D18*
X59100Y14000D02*
D03*
X62600D02*
D03*
X50600D02*
D03*
X47100D02*
D03*
X86500Y161500D02*
D03*
X83000D02*
D03*
X79500D02*
D03*
X76000D02*
D03*
X66000D02*
D03*
X62500D02*
D03*
X59000D02*
D03*
X55500D02*
D03*
X45500D02*
D03*
X42000D02*
D03*
X38500D02*
D03*
X35000D02*
D03*
X25000D02*
D03*
X21500D02*
D03*
X18000D02*
D03*
X14500D02*
D03*
D19*
X16300Y167500D02*
D03*
X18269D02*
D03*
X20237D02*
D03*
X22206D02*
D03*
X36800D02*
D03*
X38769D02*
D03*
X40737D02*
D03*
X42706D02*
D03*
X57300D02*
D03*
X59268D02*
D03*
X61237D02*
D03*
X63205D02*
D03*
X77800D02*
D03*
X79769D02*
D03*
X81737D02*
D03*
X83706D02*
D03*
D20*
X11969Y177342D02*
D03*
X26536D02*
D03*
X32469D02*
D03*
X47036D02*
D03*
X52969D02*
D03*
X67536D02*
D03*
X73469D02*
D03*
X88036D02*
D03*
D26*
X33810Y146500D02*
X47500D01*
X78000Y155500D02*
X83000Y150500D01*
X64000Y155500D02*
X78000D01*
X61237Y158263D02*
X64000Y155500D01*
X61237Y158263D02*
Y167500D01*
X83000Y101197D02*
Y150500D01*
X82215Y156785D02*
X84200Y154800D01*
X72500Y89000D02*
X84200Y100700D01*
Y154800D01*
X73803Y92000D02*
X83000Y101197D01*
X51221Y133500D02*
Y142779D01*
X47500Y146500D02*
X51221Y142779D01*
X59500Y106000D02*
Y136500D01*
X40737Y155263D02*
X59500Y136500D01*
X40737Y155263D02*
Y167500D01*
X88500Y71500D02*
X95000Y65000D01*
X85000D02*
X95000Y55000D01*
X85000Y65000D02*
Y98000D01*
X88500Y71500D02*
Y98000D01*
X70500Y95000D02*
X73000D01*
X60500Y85000D02*
X70500Y95000D01*
X71500Y92000D02*
X73803D01*
X68500Y89000D02*
X71500Y92000D01*
X5000Y95000D02*
X15000Y85000D01*
X60500D01*
X62500Y91000D02*
Y103000D01*
X59000Y87500D02*
X62500Y91000D01*
X82039Y27961D02*
X95000Y15000D01*
X86920Y33079D02*
X95000Y25000D01*
X62971Y33079D02*
X86920D01*
X90129Y39871D02*
X95000Y35000D01*
X62971Y27961D02*
X82039D01*
X58739Y39871D02*
X90129D01*
X43500Y44171D02*
X51335Y52006D01*
X59500Y45000D02*
X95000D01*
X56179Y41679D02*
X59500Y45000D01*
Y106000D02*
X62500Y103000D01*
X81737Y167500D02*
X82215Y167022D01*
Y156785D02*
Y167022D01*
X20237Y161500D02*
Y167500D01*
Y138763D02*
Y161500D01*
X32500Y101539D02*
Y126500D01*
X20237Y138763D02*
X32500Y126500D01*
Y101539D02*
X39197Y94841D01*
X46829Y35639D02*
Y42500D01*
X43500Y34500D02*
X44921Y33079D01*
X43500Y34500D02*
Y44171D01*
D27*
X62997Y146624D02*
X66873D01*
X33810Y146500D02*
X37687D01*
X56300Y14000D02*
X59100D01*
X53400D02*
X53618D01*
X50600D02*
X53400D01*
X76000Y158500D02*
Y161500D01*
X79500D02*
X83263D01*
X59000D02*
X62500D01*
X38500D02*
X42000D01*
X20237D02*
X21500D01*
X18000D02*
X20237D01*
X55500Y158500D02*
Y161500D01*
X66000Y158500D02*
Y161500D01*
X86500Y158500D02*
Y161500D01*
X45500Y158500D02*
Y161500D01*
X35000Y158500D02*
Y161500D01*
X14500Y158500D02*
Y161500D01*
X25000Y158500D02*
Y161500D01*
X59121Y141124D02*
X62997D01*
X38313Y141000D02*
X42190D01*
X29339Y92318D02*
Y95341D01*
X28339Y96341D02*
X29339Y95341D01*
X22008Y95511D02*
X22839Y96341D01*
X22008Y92341D02*
X22008Y95511D01*
X27339Y116841D02*
X27839Y116341D01*
X27339Y120341D02*
X27339Y116841D01*
X22008Y116672D02*
X22339Y116341D01*
X22008Y116672D02*
X22008Y120672D01*
D28*
X56118Y9882D02*
Y14000D01*
X53618Y10118D02*
Y14000D01*
X26531Y177337D02*
X26536Y177342D01*
X26531Y173843D02*
Y177337D01*
X11964D02*
X11969Y177342D01*
X11964Y173843D02*
Y177337D01*
X47031D02*
X47036Y177342D01*
X47031Y173843D02*
Y177337D01*
X32464D02*
X32469Y177342D01*
X32464Y173843D02*
Y177337D01*
X52964Y173843D02*
X52969Y173848D01*
Y177342D01*
X67531Y173843D02*
X67536Y173848D01*
Y177342D01*
X73464Y173843D02*
X73469Y173848D01*
Y177342D01*
X88031Y177337D02*
X88036Y177342D01*
X88031Y173843D02*
Y177337D01*
X62236Y7500D02*
Y14000D01*
X47500Y7500D02*
Y14000D01*
X77800Y165400D02*
Y167500D01*
X76000Y163600D02*
X77800Y165400D01*
X76000Y161500D02*
Y163600D01*
X57300Y165400D02*
Y167500D01*
X55500Y163600D02*
X57300Y165400D01*
X55500Y161500D02*
Y163600D01*
X36800Y165400D02*
Y167500D01*
X35000Y163600D02*
X36800Y165400D01*
X35000Y161500D02*
Y163600D01*
X14500Y161500D02*
Y163600D01*
X16300Y165400D01*
Y167500D01*
X79769D02*
Y170800D01*
X80700Y171731D01*
X59268Y167500D02*
Y170800D01*
X60200Y171731D01*
X38769Y167500D02*
Y170800D01*
X39700Y171731D01*
X18269Y170800D02*
X19200Y171731D01*
X18269Y167500D02*
Y170800D01*
X53000Y9500D02*
X53618Y10118D01*
X56118Y9882D02*
X56500Y9500D01*
X53618Y17500D02*
Y23882D01*
X56118Y17500D02*
Y23823D01*
X56177Y23882D01*
D29*
X56179Y39871D02*
Y41679D01*
D30*
X51061Y35639D02*
X54900Y31800D01*
X51061Y35639D02*
Y39871D01*
X54900Y31800D02*
X56179Y30520D01*
X62971D01*
X42000Y30500D02*
X46829D01*
X44921Y33079D02*
X46829D01*
X62971Y35639D02*
X70309D01*
X71335Y36665D01*
D31*
X32500Y25500D02*
Y30500D01*
X37500D01*
X42000D01*
X27000Y25500D02*
Y30500D01*
X18500D02*
X27000D01*
D32*
X72839Y114841D02*
X72898Y114900D01*
D35*
X75981D01*
X72839Y109841D02*
X72839Y114841D01*
X56339Y133341D02*
X56339Y129841D01*
X36339Y112341D02*
X39839Y112341D01*
X58898Y91400D02*
X58898Y95282D01*
D36*
X20500Y5000D02*
D03*
X95000Y175000D02*
D03*
Y165000D02*
D03*
Y155000D02*
D03*
Y145000D02*
D03*
Y135000D02*
D03*
Y125000D02*
D03*
Y115000D02*
D03*
Y105000D02*
D03*
Y95000D02*
D03*
Y85000D02*
D03*
Y75000D02*
D03*
Y65000D02*
D03*
Y55000D02*
D03*
Y45000D02*
D03*
Y35000D02*
D03*
Y25000D02*
D03*
Y15000D02*
D03*
X5000Y175000D02*
D03*
Y165000D02*
D03*
Y155000D02*
D03*
Y145000D02*
D03*
Y135000D02*
D03*
Y125000D02*
D03*
Y115000D02*
D03*
Y105000D02*
D03*
Y95000D02*
D03*
Y85000D02*
D03*
Y75000D02*
D03*
Y65000D02*
D03*
Y55000D02*
D03*
Y45000D02*
D03*
Y35000D02*
D03*
Y25000D02*
D03*
Y15000D02*
D03*
D37*
X20500D02*
D03*
X95000Y5000D02*
D03*
X5000D02*
D03*
D38*
X48839Y119841D02*
D03*
X56339D02*
D03*
X63839Y119841D02*
D03*
Y104841D02*
D03*
X56339D02*
D03*
X48839D02*
D03*
X48839Y112341D02*
D03*
X63839Y112341D02*
D03*
X56339D02*
D03*
X75434Y146624D02*
D03*
X66873D02*
D03*
X33810Y146500D02*
D03*
X26190D02*
D03*
X62236Y7500D02*
D03*
X47500D02*
D03*
X75000Y17500D02*
D03*
X80000D02*
D03*
Y12500D02*
D03*
Y7500D02*
D03*
X38000Y16106D02*
D03*
X85000Y98000D02*
D03*
X68500Y89000D02*
D03*
X72500D02*
D03*
X59000Y87500D02*
D03*
X73000Y95000D02*
D03*
X79500Y122500D02*
D03*
Y117500D02*
D03*
X87500Y135000D02*
D03*
X64016Y132000D02*
D03*
X11964Y173843D02*
D03*
X26531D02*
D03*
X32464D02*
D03*
X47031D02*
D03*
X52964D02*
D03*
X67531D02*
D03*
X73464D02*
D03*
X88031D02*
D03*
X51221Y133500D02*
D03*
X48662Y136838D02*
D03*
X88500Y98000D02*
D03*
X79500Y105000D02*
D03*
Y101500D02*
D03*
X86700Y167500D02*
D03*
X45700D02*
D03*
X80700Y171900D02*
D03*
X60200D02*
D03*
X39700D02*
D03*
X19200D02*
D03*
X66200Y167500D02*
D03*
X25200D02*
D03*
X76000Y158500D02*
D03*
X55500D02*
D03*
X66000D02*
D03*
X86500D02*
D03*
X45500D02*
D03*
X35000D02*
D03*
X14500D02*
D03*
X25000D02*
D03*
X59121Y141124D02*
D03*
X42190Y141000D02*
D03*
X39197Y94841D02*
D03*
X29339Y92318D02*
D03*
X22008Y120672D02*
D03*
X22008Y92341D02*
D03*
X75981Y114900D02*
D03*
X56500Y9500D02*
D03*
X53000D02*
D03*
X37500Y30500D02*
D03*
X42000D02*
D03*
X48200Y25000D02*
D03*
X71335Y36665D02*
D03*
X54900Y31800D02*
D03*
X46829Y42500D02*
D03*
X51335Y52006D02*
D03*
X18500Y30500D02*
D03*
X20500Y36000D02*
D03*
X44500Y56500D02*
D03*
X56339Y133341D02*
D03*
X58898Y91400D02*
D03*
X36339Y112341D02*
D03*
X39000Y60500D02*
D03*
Y56500D02*
D03*
Y44500D02*
D03*
Y40500D02*
D03*
X30500Y3500D02*
D03*
X22000Y64000D02*
D03*
X27000D02*
D03*
X32000D02*
D03*
X27000Y58000D02*
D03*
X22000D02*
D03*
X32000Y58500D02*
D03*
X27339Y120341D02*
D03*
D39*
X53400Y14000D02*
D03*
Y17500D02*
D03*
X56300Y14000D02*
D03*
Y17500D02*
D03*
D40*
X62971Y35639D02*
D03*
Y33079D02*
D03*
Y30520D02*
D03*
Y27961D02*
D03*
X46829Y35639D02*
D03*
Y33079D02*
D03*
Y30520D02*
D03*
Y27961D02*
D03*
D41*
X51061Y23729D02*
D03*
X53620Y23729D02*
D03*
X56179D02*
D03*
X58739D02*
D03*
X58739Y39871D02*
D03*
X56179D02*
D03*
X53620D02*
D03*
X51061D02*
D03*
D42*
X54900Y31800D02*
D03*
D43*
X47819Y26300D02*
D03*
D44*
X49850Y24900D02*
D03*
M02*
