%FSLAX25Y25*%
%MOIN*%
G70*
G01*
G75*
G04 Layer_Physical_Order=2*
G04 Layer_Color=36540*
%ADD10R,0.03600X0.03600*%
%ADD11R,0.03600X0.03600*%
%ADD12R,0.07087X0.07480*%
%ADD13R,0.01575X0.05315*%
%ADD14R,0.08268X0.06299*%
%ADD15R,0.25787X0.25787*%
%ADD16O,0.01378X0.03937*%
%ADD17O,0.03937X0.01378*%
%ADD18R,0.02200X0.02200*%
%ADD19R,0.01181X0.03937*%
%ADD20R,0.01969X0.03150*%
%ADD21R,0.04724X0.07874*%
%ADD22R,0.04528X0.02953*%
%ADD23R,0.03740X0.05512*%
%ADD24R,0.02362X0.06299*%
%ADD25R,0.02362X0.07087*%
%ADD26C,0.00600*%
%ADD27C,0.01500*%
%ADD28C,0.01000*%
%ADD29C,0.00800*%
%ADD30C,0.01200*%
%ADD31C,0.03500*%
%ADD32C,0.01300*%
%ADD33C,0.02500*%
%ADD34C,0.02300*%
%ADD35C,0.02000*%
%ADD36C,0.05906*%
%ADD37R,0.05906X0.05906*%
%ADD38C,0.02500*%
G36*
X92096Y177052D02*
X91897Y176792D01*
X91539Y175927D01*
X91417Y175000D01*
X91539Y174073D01*
X91897Y173208D01*
X92466Y172466D01*
X93208Y171897D01*
X94073Y171539D01*
X95000Y171417D01*
X95927Y171539D01*
X96792Y171897D01*
X97052Y172096D01*
X97500Y171875D01*
Y168125D01*
X97052Y167904D01*
X96792Y168103D01*
X95927Y168461D01*
X95000Y168583D01*
X94073Y168461D01*
X93208Y168103D01*
X92466Y167534D01*
X91897Y166792D01*
X91539Y165927D01*
X91417Y165000D01*
X91539Y164073D01*
X91897Y163208D01*
X92466Y162466D01*
X93208Y161897D01*
X94073Y161539D01*
X95000Y161417D01*
X95927Y161539D01*
X96792Y161897D01*
X97052Y162096D01*
X97500Y161875D01*
Y148125D01*
X97052Y147904D01*
X96792Y148103D01*
X95927Y148461D01*
X95000Y148583D01*
X94073Y148461D01*
X93208Y148103D01*
X92466Y147534D01*
X91897Y146792D01*
X91539Y145927D01*
X91417Y145000D01*
X91539Y144073D01*
X91897Y143208D01*
X92466Y142466D01*
X93208Y141897D01*
X94073Y141539D01*
X95000Y141417D01*
X95927Y141539D01*
X96792Y141897D01*
X97052Y142096D01*
X97500Y141875D01*
Y138125D01*
X97052Y137904D01*
X96792Y138103D01*
X95927Y138461D01*
X95000Y138583D01*
X94073Y138461D01*
X93208Y138103D01*
X92466Y137534D01*
X91897Y136792D01*
X91539Y135927D01*
X91417Y135000D01*
X91539Y134073D01*
X91897Y133208D01*
X92466Y132466D01*
X93208Y131897D01*
X94073Y131539D01*
X95000Y131417D01*
X95927Y131539D01*
X96792Y131897D01*
X97052Y132096D01*
X97500Y131875D01*
Y128125D01*
X97052Y127904D01*
X96792Y128103D01*
X95927Y128461D01*
X95000Y128583D01*
X94073Y128461D01*
X93208Y128103D01*
X92466Y127534D01*
X91897Y126792D01*
X91539Y125927D01*
X91417Y125000D01*
X91539Y124073D01*
X91897Y123208D01*
X92466Y122466D01*
X93208Y121897D01*
X94073Y121539D01*
X95000Y121417D01*
X95927Y121539D01*
X96792Y121897D01*
X97052Y122096D01*
X97500Y121875D01*
Y118125D01*
X97052Y117904D01*
X96792Y118103D01*
X95927Y118461D01*
X95000Y118583D01*
X94073Y118461D01*
X93208Y118103D01*
X92466Y117534D01*
X91897Y116792D01*
X91539Y115927D01*
X91417Y115000D01*
X91539Y114073D01*
X91897Y113208D01*
X92466Y112466D01*
X93208Y111897D01*
X94073Y111539D01*
X95000Y111417D01*
X95927Y111539D01*
X96792Y111897D01*
X97052Y112096D01*
X97500Y111875D01*
Y108125D01*
X97052Y107904D01*
X96792Y108103D01*
X95927Y108461D01*
X95000Y108583D01*
X94073Y108461D01*
X93208Y108103D01*
X92466Y107534D01*
X91897Y106792D01*
X91539Y105927D01*
X91417Y105000D01*
X91539Y104073D01*
X91897Y103208D01*
X92466Y102466D01*
X93208Y101897D01*
X94073Y101539D01*
X95000Y101417D01*
X95927Y101539D01*
X96792Y101897D01*
X97052Y102096D01*
X97500Y101875D01*
Y98125D01*
X97052Y97904D01*
X96792Y98103D01*
X95927Y98461D01*
X95000Y98583D01*
X94073Y98461D01*
X93208Y98103D01*
X92466Y97534D01*
X91897Y96792D01*
X91539Y95927D01*
X91417Y95000D01*
X91539Y94073D01*
X91897Y93208D01*
X92466Y92466D01*
X93208Y91897D01*
X94073Y91539D01*
X95000Y91417D01*
X95927Y91539D01*
X96792Y91897D01*
X97052Y92096D01*
X97500Y91875D01*
Y78125D01*
X97052Y77904D01*
X96792Y78103D01*
X95927Y78461D01*
X95000Y78583D01*
X94073Y78461D01*
X93208Y78103D01*
X92466Y77534D01*
X91897Y76792D01*
X91539Y75927D01*
X91417Y75000D01*
X91539Y74073D01*
X91897Y73208D01*
X92466Y72466D01*
X93208Y71897D01*
X94073Y71539D01*
X95000Y71417D01*
X95927Y71539D01*
X96792Y71897D01*
X97052Y72096D01*
X97500Y71875D01*
Y68125D01*
X97052Y67904D01*
X96792Y68103D01*
X95927Y68461D01*
X95000Y68583D01*
X94073Y68461D01*
X93208Y68103D01*
X92466Y67534D01*
X91897Y66792D01*
X91539Y65927D01*
X91417Y65000D01*
X91539Y64073D01*
X91897Y63208D01*
X92466Y62466D01*
X93208Y61897D01*
X94073Y61539D01*
X95000Y61417D01*
X95927Y61539D01*
X96792Y61897D01*
X97052Y62096D01*
X97500Y61875D01*
Y58125D01*
X97052Y57904D01*
X96792Y58103D01*
X95927Y58461D01*
X95000Y58583D01*
X94073Y58461D01*
X93208Y58103D01*
X92466Y57534D01*
X91897Y56792D01*
X91539Y55927D01*
X91417Y55000D01*
X91539Y54073D01*
X91897Y53208D01*
X92466Y52466D01*
X93208Y51897D01*
X94073Y51539D01*
X95000Y51417D01*
X95927Y51539D01*
X96792Y51897D01*
X97052Y52096D01*
X97500Y51875D01*
Y48125D01*
X97052Y47904D01*
X96792Y48103D01*
X95927Y48461D01*
X95000Y48583D01*
X94073Y48461D01*
X93208Y48103D01*
X92466Y47534D01*
X91897Y46792D01*
X91539Y45927D01*
X91417Y45000D01*
X91539Y44073D01*
X91897Y43208D01*
X92466Y42466D01*
X93208Y41897D01*
X94073Y41539D01*
X95000Y41417D01*
X95927Y41539D01*
X96792Y41897D01*
X97052Y42096D01*
X97500Y41875D01*
Y38125D01*
X97052Y37904D01*
X96792Y38103D01*
X95927Y38461D01*
X95000Y38583D01*
X94073Y38461D01*
X93208Y38103D01*
X92466Y37534D01*
X91897Y36792D01*
X91539Y35927D01*
X91417Y35000D01*
X91539Y34073D01*
X91897Y33208D01*
X92466Y32466D01*
X93208Y31897D01*
X94073Y31539D01*
X95000Y31417D01*
X95927Y31539D01*
X96792Y31897D01*
X97052Y32096D01*
X97500Y31875D01*
Y28125D01*
X97052Y27904D01*
X96792Y28103D01*
X95927Y28461D01*
X95000Y28583D01*
X94073Y28461D01*
X93208Y28103D01*
X92466Y27534D01*
X91897Y26792D01*
X91539Y25927D01*
X91417Y25000D01*
X91539Y24073D01*
X91897Y23208D01*
X92466Y22466D01*
X93208Y21897D01*
X94073Y21539D01*
X95000Y21417D01*
X95927Y21539D01*
X96792Y21897D01*
X97052Y22096D01*
X97500Y21875D01*
Y18125D01*
X97052Y17904D01*
X96792Y18103D01*
X95927Y18461D01*
X95000Y18583D01*
X94073Y18461D01*
X93208Y18103D01*
X92466Y17534D01*
X91897Y16792D01*
X91539Y15927D01*
X91417Y15000D01*
X91539Y14073D01*
X91897Y13208D01*
X92466Y12466D01*
X93208Y11897D01*
X94073Y11539D01*
X95000Y11417D01*
X95927Y11539D01*
X96792Y11897D01*
X97052Y12096D01*
X97500Y11875D01*
Y2500D01*
X8553D01*
Y8553D01*
X2500D01*
Y11875D01*
X2948Y12096D01*
X3208Y11897D01*
X4073Y11539D01*
X5000Y11417D01*
X5928Y11539D01*
X6792Y11897D01*
X7534Y12466D01*
X8103Y13208D01*
X8461Y14073D01*
X8583Y15000D01*
X8461Y15927D01*
X8103Y16792D01*
X7534Y17534D01*
X6792Y18103D01*
X5928Y18461D01*
X5000Y18583D01*
X4073Y18461D01*
X3208Y18103D01*
X2948Y17904D01*
X2500Y18125D01*
Y21875D01*
X2948Y22096D01*
X3208Y21897D01*
X4073Y21539D01*
X5000Y21417D01*
X5928Y21539D01*
X6792Y21897D01*
X7534Y22466D01*
X8103Y23208D01*
X8461Y24073D01*
X8583Y25000D01*
X8461Y25927D01*
X8103Y26792D01*
X7534Y27534D01*
X6792Y28103D01*
X5928Y28461D01*
X5000Y28583D01*
X4073Y28461D01*
X3208Y28103D01*
X2948Y27904D01*
X2500Y28125D01*
Y31875D01*
X2948Y32096D01*
X3208Y31897D01*
X4073Y31539D01*
X5000Y31417D01*
X5928Y31539D01*
X6792Y31897D01*
X7534Y32466D01*
X8103Y33208D01*
X8461Y34073D01*
X8583Y35000D01*
X8461Y35927D01*
X8103Y36792D01*
X7534Y37534D01*
X6792Y38103D01*
X5928Y38461D01*
X5000Y38583D01*
X4073Y38461D01*
X3208Y38103D01*
X2948Y37904D01*
X2500Y38125D01*
Y41875D01*
X2948Y42096D01*
X3208Y41897D01*
X4073Y41539D01*
X5000Y41417D01*
X5928Y41539D01*
X6792Y41897D01*
X7534Y42466D01*
X8103Y43208D01*
X8461Y44073D01*
X8583Y45000D01*
X8461Y45927D01*
X8103Y46792D01*
X7534Y47534D01*
X6792Y48103D01*
X5928Y48461D01*
X5000Y48583D01*
X4073Y48461D01*
X3208Y48103D01*
X2948Y47904D01*
X2500Y48125D01*
Y51875D01*
X2948Y52096D01*
X3208Y51897D01*
X4073Y51539D01*
X5000Y51417D01*
X5928Y51539D01*
X6792Y51897D01*
X7534Y52466D01*
X8103Y53208D01*
X8461Y54073D01*
X8583Y55000D01*
X8461Y55927D01*
X8103Y56792D01*
X7534Y57534D01*
X6792Y58103D01*
X5928Y58461D01*
X5000Y58583D01*
X4073Y58461D01*
X3208Y58103D01*
X2948Y57904D01*
X2500Y58125D01*
Y61875D01*
X2948Y62096D01*
X3208Y61897D01*
X4073Y61539D01*
X5000Y61417D01*
X5928Y61539D01*
X6792Y61897D01*
X7534Y62466D01*
X8103Y63208D01*
X8461Y64073D01*
X8583Y65000D01*
X8461Y65927D01*
X8103Y66792D01*
X7534Y67534D01*
X6792Y68103D01*
X5928Y68461D01*
X5000Y68583D01*
X4073Y68461D01*
X3208Y68103D01*
X2948Y67904D01*
X2500Y68125D01*
Y71875D01*
X2948Y72096D01*
X3208Y71897D01*
X4073Y71539D01*
X5000Y71417D01*
X5928Y71539D01*
X6792Y71897D01*
X7534Y72466D01*
X8103Y73208D01*
X8461Y74073D01*
X8583Y75000D01*
X8461Y75927D01*
X8103Y76792D01*
X7534Y77534D01*
X6792Y78103D01*
X5928Y78461D01*
X5000Y78583D01*
X4073Y78461D01*
X3208Y78103D01*
X2948Y77904D01*
X2500Y78125D01*
Y91875D01*
X2948Y92096D01*
X3208Y91897D01*
X4073Y91539D01*
X5000Y91417D01*
X5928Y91539D01*
X6792Y91897D01*
X7534Y92466D01*
X8103Y93208D01*
X8461Y94073D01*
X8583Y95000D01*
X8461Y95927D01*
X8103Y96792D01*
X7534Y97534D01*
X6792Y98103D01*
X5928Y98461D01*
X5000Y98583D01*
X4073Y98461D01*
X3208Y98103D01*
X2948Y97904D01*
X2500Y98125D01*
Y101875D01*
X2948Y102096D01*
X3208Y101897D01*
X4073Y101539D01*
X5000Y101417D01*
X5928Y101539D01*
X6792Y101897D01*
X7534Y102466D01*
X8103Y103208D01*
X8461Y104073D01*
X8583Y105000D01*
X8461Y105927D01*
X8103Y106792D01*
X7534Y107534D01*
X6792Y108103D01*
X5928Y108461D01*
X5000Y108583D01*
X4073Y108461D01*
X3208Y108103D01*
X2948Y107904D01*
X2500Y108125D01*
Y111875D01*
X2948Y112096D01*
X3208Y111897D01*
X4073Y111539D01*
X5000Y111417D01*
X5928Y111539D01*
X6792Y111897D01*
X7534Y112466D01*
X8103Y113208D01*
X8461Y114073D01*
X8583Y115000D01*
X8461Y115927D01*
X8103Y116792D01*
X7534Y117534D01*
X6792Y118103D01*
X5928Y118461D01*
X5000Y118583D01*
X4073Y118461D01*
X3208Y118103D01*
X2948Y117904D01*
X2500Y118125D01*
Y121875D01*
X2948Y122096D01*
X3208Y121897D01*
X4073Y121539D01*
X5000Y121417D01*
X5928Y121539D01*
X6792Y121897D01*
X7534Y122466D01*
X8103Y123208D01*
X8461Y124073D01*
X8583Y125000D01*
X8461Y125927D01*
X8103Y126792D01*
X7534Y127534D01*
X6792Y128103D01*
X5928Y128461D01*
X5000Y128583D01*
X4073Y128461D01*
X3208Y128103D01*
X2948Y127904D01*
X2500Y128125D01*
Y131875D01*
X2948Y132096D01*
X3208Y131897D01*
X4073Y131539D01*
X5000Y131417D01*
X5928Y131539D01*
X6792Y131897D01*
X7534Y132466D01*
X8103Y133208D01*
X8461Y134073D01*
X8583Y135000D01*
X8461Y135927D01*
X8103Y136792D01*
X7534Y137534D01*
X6792Y138103D01*
X5928Y138461D01*
X5000Y138583D01*
X4073Y138461D01*
X3208Y138103D01*
X2948Y137904D01*
X2500Y138125D01*
Y141875D01*
X2948Y142096D01*
X3208Y141897D01*
X4073Y141539D01*
X5000Y141417D01*
X5928Y141539D01*
X6792Y141897D01*
X7534Y142466D01*
X8103Y143208D01*
X8461Y144073D01*
X8583Y145000D01*
X8461Y145927D01*
X8103Y146792D01*
X7534Y147534D01*
X6792Y148103D01*
X5928Y148461D01*
X5000Y148583D01*
X4073Y148461D01*
X3208Y148103D01*
X2948Y147904D01*
X2500Y148125D01*
Y151875D01*
X2948Y152096D01*
X3208Y151897D01*
X4073Y151539D01*
X5000Y151417D01*
X5928Y151539D01*
X6792Y151897D01*
X7534Y152466D01*
X8103Y153208D01*
X8461Y154073D01*
X8583Y155000D01*
X8461Y155927D01*
X8103Y156792D01*
X7534Y157534D01*
X6792Y158103D01*
X5928Y158461D01*
X5000Y158583D01*
X4073Y158461D01*
X3208Y158103D01*
X2948Y157904D01*
X2500Y158125D01*
Y161875D01*
X2948Y162096D01*
X3208Y161897D01*
X4073Y161539D01*
X5000Y161417D01*
X5928Y161539D01*
X6792Y161897D01*
X7534Y162466D01*
X8103Y163208D01*
X8461Y164073D01*
X8583Y165000D01*
X8461Y165927D01*
X8103Y166792D01*
X7534Y167534D01*
X6792Y168103D01*
X5928Y168461D01*
X5000Y168583D01*
X4073Y168461D01*
X3208Y168103D01*
X2948Y167904D01*
X2500Y168125D01*
Y177500D01*
X91875D01*
X92096Y177052D01*
D02*
G37*
%LPC*%
G36*
X58898Y93287D02*
X58176Y93143D01*
X57564Y92734D01*
X57155Y92122D01*
X57012Y91400D01*
X57155Y90679D01*
X57564Y90067D01*
X58164Y89666D01*
Y89595D01*
X58065Y89100D01*
X57666Y88834D01*
X57257Y88222D01*
X57114Y87500D01*
X57257Y86778D01*
X57666Y86166D01*
X58278Y85757D01*
X59000Y85614D01*
X59722Y85757D01*
X60334Y86166D01*
X60743Y86778D01*
X60886Y87500D01*
X60743Y88222D01*
X60334Y88834D01*
X59734Y89234D01*
Y89305D01*
X59833Y89800D01*
X60232Y90067D01*
X60641Y90679D01*
X60784Y91400D01*
X60641Y92122D01*
X60232Y92734D01*
X59620Y93143D01*
X58898Y93287D01*
D02*
G37*
G36*
X72500Y90886D02*
X71778Y90743D01*
X71166Y90334D01*
X70757Y89722D01*
X70750Y89685D01*
X70250D01*
X70243Y89722D01*
X69834Y90334D01*
X69222Y90743D01*
X68500Y90886D01*
X67778Y90743D01*
X67166Y90334D01*
X66757Y89722D01*
X66614Y89000D01*
X66757Y88278D01*
X67166Y87666D01*
X67778Y87257D01*
X68500Y87114D01*
X69222Y87257D01*
X69834Y87666D01*
X70243Y88278D01*
X70250Y88315D01*
X70750D01*
X70757Y88278D01*
X71166Y87666D01*
X71778Y87257D01*
X72500Y87114D01*
X73222Y87257D01*
X73834Y87666D01*
X74243Y88278D01*
X74386Y89000D01*
X74243Y89722D01*
X73834Y90334D01*
X73222Y90743D01*
X72500Y90886D01*
D02*
G37*
G36*
X32000Y65886D02*
X31278Y65743D01*
X30666Y65334D01*
X30257Y64722D01*
X30114Y64000D01*
X30257Y63278D01*
X30666Y62666D01*
X31278Y62257D01*
X32000Y62114D01*
X32722Y62257D01*
X33334Y62666D01*
X33743Y63278D01*
X33886Y64000D01*
X33743Y64722D01*
X33334Y65334D01*
X32722Y65743D01*
X32000Y65886D01*
D02*
G37*
G36*
X22000D02*
X21278Y65743D01*
X20666Y65334D01*
X20257Y64722D01*
X20114Y64000D01*
X20257Y63278D01*
X20666Y62666D01*
X21278Y62257D01*
X22000Y62114D01*
X22722Y62257D01*
X23334Y62666D01*
X23743Y63278D01*
X23886Y64000D01*
X23743Y64722D01*
X23334Y65334D01*
X22722Y65743D01*
X22000Y65886D01*
D02*
G37*
G36*
X27000D02*
X26278Y65743D01*
X25666Y65334D01*
X25257Y64722D01*
X25114Y64000D01*
X25257Y63278D01*
X25666Y62666D01*
X26278Y62257D01*
X27000Y62114D01*
X27722Y62257D01*
X28334Y62666D01*
X28743Y63278D01*
X28886Y64000D01*
X28743Y64722D01*
X28334Y65334D01*
X27722Y65743D01*
X27000Y65886D01*
D02*
G37*
G36*
X88500Y99886D02*
X87778Y99743D01*
X87166Y99334D01*
X87000Y99085D01*
X86500D01*
X86334Y99334D01*
X85722Y99743D01*
X85000Y99886D01*
X84278Y99743D01*
X83666Y99334D01*
X83257Y98722D01*
X83114Y98000D01*
X83257Y97278D01*
X83666Y96666D01*
X84278Y96257D01*
X85000Y96114D01*
X85722Y96257D01*
X86334Y96666D01*
X86500Y96915D01*
X87000D01*
X87166Y96666D01*
X87778Y96257D01*
X88500Y96114D01*
X89222Y96257D01*
X89834Y96666D01*
X90243Y97278D01*
X90386Y98000D01*
X90243Y98722D01*
X89834Y99334D01*
X89222Y99743D01*
X88500Y99886D01*
D02*
G37*
G36*
X79500Y106886D02*
X78778Y106743D01*
X78166Y106334D01*
X77757Y105722D01*
X77614Y105000D01*
X77757Y104278D01*
X78166Y103666D01*
X78415Y103500D01*
Y103000D01*
X78166Y102834D01*
X77757Y102222D01*
X77614Y101500D01*
X77757Y100778D01*
X78166Y100166D01*
X78778Y99757D01*
X79500Y99614D01*
X80222Y99757D01*
X80834Y100166D01*
X81243Y100778D01*
X81386Y101500D01*
X81243Y102222D01*
X80834Y102834D01*
X80585Y103000D01*
Y103500D01*
X80834Y103666D01*
X81243Y104278D01*
X81386Y105000D01*
X81243Y105722D01*
X80834Y106334D01*
X80222Y106743D01*
X79500Y106886D01*
D02*
G37*
G36*
X73000Y96886D02*
X72278Y96743D01*
X71666Y96334D01*
X71257Y95722D01*
X71114Y95000D01*
X71257Y94278D01*
X71666Y93666D01*
X72278Y93257D01*
X73000Y93114D01*
X73722Y93257D01*
X74334Y93666D01*
X74743Y94278D01*
X74886Y95000D01*
X74743Y95722D01*
X74334Y96334D01*
X73722Y96743D01*
X73000Y96886D01*
D02*
G37*
G36*
X29339Y94204D02*
X28617Y94060D01*
X28005Y93651D01*
X27596Y93040D01*
X27453Y92318D01*
X27596Y91596D01*
X28005Y90984D01*
X28617Y90575D01*
X29339Y90431D01*
X30061Y90575D01*
X30673Y90984D01*
X31082Y91596D01*
X31225Y92318D01*
X31082Y93040D01*
X30673Y93651D01*
X30061Y94060D01*
X29339Y94204D01*
D02*
G37*
G36*
X39197Y96728D02*
X38475Y96584D01*
X37863Y96175D01*
X37454Y95563D01*
X37311Y94841D01*
X37454Y94120D01*
X37863Y93508D01*
X38475Y93099D01*
X39197Y92955D01*
X39919Y93099D01*
X40531Y93508D01*
X40940Y94120D01*
X41083Y94841D01*
X40940Y95563D01*
X40531Y96175D01*
X39919Y96584D01*
X39197Y96728D01*
D02*
G37*
G36*
X32000Y60386D02*
X31278Y60243D01*
X30666Y59834D01*
X30257Y59222D01*
X30114Y58500D01*
X30257Y57778D01*
X30666Y57166D01*
X31278Y56757D01*
X32000Y56614D01*
X32722Y56757D01*
X33334Y57166D01*
X33743Y57778D01*
X33886Y58500D01*
X33743Y59222D01*
X33334Y59834D01*
X32722Y60243D01*
X32000Y60386D01*
D02*
G37*
G36*
X37500Y32386D02*
X36778Y32243D01*
X36166Y31834D01*
X35757Y31222D01*
X35614Y30500D01*
X35757Y29778D01*
X36166Y29166D01*
X36778Y28757D01*
X37500Y28614D01*
X38222Y28757D01*
X38834Y29166D01*
X39243Y29778D01*
X39386Y30500D01*
X39243Y31222D01*
X38834Y31834D01*
X38222Y32243D01*
X37500Y32386D01*
D02*
G37*
G36*
X42000D02*
X41278Y32243D01*
X40666Y31834D01*
X40257Y31222D01*
X40114Y30500D01*
X40257Y29778D01*
X40666Y29166D01*
X41278Y28757D01*
X42000Y28614D01*
X42722Y28757D01*
X43334Y29166D01*
X43743Y29778D01*
X43886Y30500D01*
X43743Y31222D01*
X43334Y31834D01*
X42722Y32243D01*
X42000Y32386D01*
D02*
G37*
G36*
X48200Y26886D02*
X47478Y26743D01*
X46866Y26334D01*
X46457Y25722D01*
X46314Y25000D01*
X46457Y24278D01*
X46866Y23666D01*
X47478Y23257D01*
X48200Y23114D01*
X48922Y23257D01*
X49534Y23666D01*
X49943Y24278D01*
X50086Y25000D01*
X49943Y25722D01*
X49534Y26334D01*
X48922Y26743D01*
X48200Y26886D01*
D02*
G37*
G36*
X56500Y11386D02*
X55778Y11243D01*
X55166Y10834D01*
X55000Y10585D01*
X54500D01*
X54334Y10834D01*
X53722Y11243D01*
X53000Y11386D01*
X52278Y11243D01*
X51666Y10834D01*
X51257Y10222D01*
X51114Y9500D01*
X51257Y8778D01*
X51666Y8166D01*
X52278Y7757D01*
X53000Y7614D01*
X53722Y7757D01*
X54334Y8166D01*
X54500Y8415D01*
X55000D01*
X55166Y8166D01*
X55778Y7757D01*
X56500Y7614D01*
X57222Y7757D01*
X57834Y8166D01*
X58243Y8778D01*
X58386Y9500D01*
X58243Y10222D01*
X57834Y10834D01*
X57222Y11243D01*
X56500Y11386D01*
D02*
G37*
G36*
X24053Y18553D02*
X16947D01*
Y11447D01*
X24053D01*
Y18553D01*
D02*
G37*
G36*
X22000Y59886D02*
X21278Y59743D01*
X20666Y59334D01*
X20257Y58722D01*
X20114Y58000D01*
X20257Y57278D01*
X20666Y56666D01*
X21278Y56257D01*
X22000Y56114D01*
X22722Y56257D01*
X23334Y56666D01*
X23743Y57278D01*
X23886Y58000D01*
X23743Y58722D01*
X23334Y59334D01*
X22722Y59743D01*
X22000Y59886D01*
D02*
G37*
G36*
X27000D02*
X26278Y59743D01*
X25666Y59334D01*
X25257Y58722D01*
X25114Y58000D01*
X25257Y57278D01*
X25666Y56666D01*
X26278Y56257D01*
X27000Y56114D01*
X27722Y56257D01*
X28334Y56666D01*
X28743Y57278D01*
X28886Y58000D01*
X28743Y58722D01*
X28334Y59334D01*
X27722Y59743D01*
X27000Y59886D01*
D02*
G37*
G36*
X51335Y53892D02*
X50614Y53749D01*
X50002Y53340D01*
X49593Y52728D01*
X49449Y52006D01*
X49593Y51284D01*
X50002Y50673D01*
X50614Y50264D01*
X51335Y50120D01*
X52057Y50264D01*
X52669Y50673D01*
X53078Y51284D01*
X53222Y52006D01*
X53078Y52728D01*
X52669Y53340D01*
X52057Y53749D01*
X51335Y53892D01*
D02*
G37*
G36*
X71335Y38551D02*
X70614Y38407D01*
X70002Y37998D01*
X69593Y37386D01*
X69449Y36665D01*
X69593Y35943D01*
X70002Y35331D01*
X70614Y34922D01*
X71335Y34778D01*
X72057Y34922D01*
X72669Y35331D01*
X73078Y35943D01*
X73222Y36665D01*
X73078Y37386D01*
X72669Y37998D01*
X72057Y38407D01*
X71335Y38551D01*
D02*
G37*
G36*
X46829Y44386D02*
X46107Y44243D01*
X45495Y43834D01*
X45087Y43222D01*
X44943Y42500D01*
X45087Y41778D01*
X45495Y41166D01*
X46107Y40757D01*
X46829Y40614D01*
X47551Y40757D01*
X48163Y41166D01*
X48572Y41778D01*
X48715Y42500D01*
X48572Y43222D01*
X48163Y43834D01*
X47551Y44243D01*
X46829Y44386D01*
D02*
G37*
G36*
X35000Y160386D02*
X34278Y160243D01*
X33666Y159834D01*
X33257Y159222D01*
X33114Y158500D01*
X33257Y157778D01*
X33666Y157166D01*
X34278Y156757D01*
X35000Y156614D01*
X35722Y156757D01*
X36334Y157166D01*
X36743Y157778D01*
X36886Y158500D01*
X36743Y159222D01*
X36334Y159834D01*
X35722Y160243D01*
X35000Y160386D01*
D02*
G37*
G36*
X55500D02*
X54778Y160243D01*
X54166Y159834D01*
X53757Y159222D01*
X53614Y158500D01*
X53757Y157778D01*
X54166Y157166D01*
X54778Y156757D01*
X55500Y156614D01*
X56222Y156757D01*
X56834Y157166D01*
X57243Y157778D01*
X57386Y158500D01*
X57243Y159222D01*
X56834Y159834D01*
X56222Y160243D01*
X55500Y160386D01*
D02*
G37*
G36*
X14500D02*
X13778Y160243D01*
X13166Y159834D01*
X12757Y159222D01*
X12614Y158500D01*
X12757Y157778D01*
X13166Y157166D01*
X13778Y156757D01*
X14500Y156614D01*
X15222Y156757D01*
X15834Y157166D01*
X16243Y157778D01*
X16386Y158500D01*
X16243Y159222D01*
X15834Y159834D01*
X15222Y160243D01*
X14500Y160386D01*
D02*
G37*
G36*
X33810Y148386D02*
X33088Y148243D01*
X32476Y147834D01*
X32068Y147222D01*
X31924Y146500D01*
X32068Y145778D01*
X32476Y145166D01*
X33088Y144757D01*
X33810Y144614D01*
X34532Y144757D01*
X35144Y145166D01*
X35553Y145778D01*
X35697Y146500D01*
X35553Y147222D01*
X35144Y147834D01*
X34532Y148243D01*
X33810Y148386D01*
D02*
G37*
G36*
X66873Y148510D02*
X66151Y148366D01*
X65539Y147957D01*
X65131Y147345D01*
X64987Y146624D01*
X65131Y145902D01*
X65539Y145290D01*
X66151Y144881D01*
X66873Y144737D01*
X67595Y144881D01*
X68207Y145290D01*
X68616Y145902D01*
X68760Y146624D01*
X68616Y147345D01*
X68207Y147957D01*
X67595Y148366D01*
X66873Y148510D01*
D02*
G37*
G36*
X66200Y169386D02*
X65478Y169243D01*
X64866Y168834D01*
X64457Y168222D01*
X64314Y167500D01*
X64457Y166778D01*
X64866Y166166D01*
X65478Y165757D01*
X66200Y165614D01*
X66922Y165757D01*
X67534Y166166D01*
X67943Y166778D01*
X68086Y167500D01*
X67943Y168222D01*
X67534Y168834D01*
X66922Y169243D01*
X66200Y169386D01*
D02*
G37*
G36*
X86700D02*
X85978Y169243D01*
X85366Y168834D01*
X84957Y168222D01*
X84814Y167500D01*
X84957Y166778D01*
X85366Y166166D01*
X85978Y165757D01*
X86700Y165614D01*
X87422Y165757D01*
X88034Y166166D01*
X88443Y166778D01*
X88586Y167500D01*
X88443Y168222D01*
X88034Y168834D01*
X87422Y169243D01*
X86700Y169386D01*
D02*
G37*
G36*
X45700D02*
X44978Y169243D01*
X44366Y168834D01*
X43957Y168222D01*
X43814Y167500D01*
X43957Y166778D01*
X44366Y166166D01*
X44978Y165757D01*
X45700Y165614D01*
X46422Y165757D01*
X47034Y166166D01*
X47443Y166778D01*
X47586Y167500D01*
X47443Y168222D01*
X47034Y168834D01*
X46422Y169243D01*
X45700Y169386D01*
D02*
G37*
G36*
X76000Y160386D02*
X75278Y160243D01*
X74666Y159834D01*
X74257Y159222D01*
X74114Y158500D01*
X74257Y157778D01*
X74666Y157166D01*
X75278Y156757D01*
X76000Y156614D01*
X76722Y156757D01*
X77334Y157166D01*
X77743Y157778D01*
X77886Y158500D01*
X77743Y159222D01*
X77334Y159834D01*
X76722Y160243D01*
X76000Y160386D01*
D02*
G37*
G36*
X25200Y169386D02*
X24478Y169243D01*
X23866Y168834D01*
X23457Y168222D01*
X23314Y167500D01*
X23457Y166778D01*
X23866Y166166D01*
X24478Y165757D01*
X25200Y165614D01*
X25922Y165757D01*
X26534Y166166D01*
X26943Y166778D01*
X27086Y167500D01*
X26943Y168222D01*
X26534Y168834D01*
X25922Y169243D01*
X25200Y169386D01*
D02*
G37*
G36*
X59121Y143010D02*
X58399Y142866D01*
X57787Y142457D01*
X57378Y141846D01*
X57234Y141124D01*
X57378Y140402D01*
X57787Y139790D01*
X58399Y139381D01*
X59121Y139237D01*
X59842Y139381D01*
X60454Y139790D01*
X60863Y140402D01*
X61007Y141124D01*
X60863Y141846D01*
X60454Y142457D01*
X59842Y142866D01*
X59121Y143010D01*
D02*
G37*
G36*
X22008Y122558D02*
X21286Y122415D01*
X20674Y122006D01*
X20266Y121394D01*
X20122Y120672D01*
X20266Y119950D01*
X20674Y119338D01*
X21286Y118929D01*
X22008Y118786D01*
X22730Y118929D01*
X23342Y119338D01*
X23751Y119950D01*
X23894Y120672D01*
X23751Y121394D01*
X23342Y122006D01*
X22730Y122415D01*
X22008Y122558D01*
D02*
G37*
G36*
X79500Y124386D02*
X78778Y124243D01*
X78166Y123834D01*
X77757Y123222D01*
X77614Y122500D01*
X77757Y121778D01*
X78166Y121166D01*
X78778Y120757D01*
X79500Y120614D01*
X80222Y120757D01*
X80834Y121166D01*
X81243Y121778D01*
X81386Y122500D01*
X81243Y123222D01*
X80834Y123834D01*
X80222Y124243D01*
X79500Y124386D01*
D02*
G37*
G36*
Y119386D02*
X78778Y119243D01*
X78166Y118834D01*
X77757Y118222D01*
X77614Y117500D01*
X77757Y116778D01*
X78166Y116166D01*
X78778Y115757D01*
X79500Y115614D01*
X80222Y115757D01*
X80834Y116166D01*
X81243Y116778D01*
X81386Y117500D01*
X81243Y118222D01*
X80834Y118834D01*
X80222Y119243D01*
X79500Y119386D01*
D02*
G37*
G36*
X36339Y114228D02*
X35617Y114084D01*
X35005Y113675D01*
X34596Y113063D01*
X34453Y112341D01*
X34596Y111619D01*
X35005Y111008D01*
X35617Y110599D01*
X36339Y110455D01*
X37061Y110599D01*
X37673Y111008D01*
X38081Y111619D01*
X38225Y112341D01*
X38081Y113063D01*
X37673Y113675D01*
X37061Y114084D01*
X36339Y114228D01*
D02*
G37*
G36*
X75981Y116787D02*
X75259Y116643D01*
X74647Y116234D01*
X74238Y115622D01*
X74094Y114900D01*
X74238Y114179D01*
X74647Y113567D01*
X75259Y113158D01*
X75981Y113014D01*
X76702Y113158D01*
X77314Y113567D01*
X77723Y114179D01*
X77867Y114900D01*
X77723Y115622D01*
X77314Y116234D01*
X76702Y116643D01*
X75981Y116787D01*
D02*
G37*
G36*
X87500Y136886D02*
X86778Y136743D01*
X86166Y136334D01*
X85757Y135722D01*
X85614Y135000D01*
X85757Y134278D01*
X86166Y133666D01*
X86778Y133257D01*
X87500Y133114D01*
X88222Y133257D01*
X88834Y133666D01*
X89243Y134278D01*
X89386Y135000D01*
X89243Y135722D01*
X88834Y136334D01*
X88222Y136743D01*
X87500Y136886D01*
D02*
G37*
G36*
X42190Y142886D02*
X41468Y142743D01*
X40856Y142334D01*
X40447Y141722D01*
X40304Y141000D01*
X40447Y140278D01*
X40856Y139666D01*
X41468Y139257D01*
X42190Y139114D01*
X42912Y139257D01*
X43523Y139666D01*
X43932Y140278D01*
X44076Y141000D01*
X43932Y141722D01*
X43523Y142334D01*
X42912Y142743D01*
X42190Y142886D01*
D02*
G37*
G36*
X48662Y138725D02*
X47940Y138581D01*
X47328Y138172D01*
X46919Y137560D01*
X46775Y136838D01*
X46919Y136117D01*
X47328Y135505D01*
X47940Y135096D01*
X48662Y134952D01*
X49384Y135096D01*
X49611Y135247D01*
X49887Y134834D01*
X49478Y134222D01*
X49334Y133500D01*
X49478Y132778D01*
X49887Y132166D01*
X50499Y131757D01*
X51221Y131614D01*
X51943Y131757D01*
X52555Y132166D01*
X52963Y132778D01*
X53107Y133500D01*
X52963Y134222D01*
X52555Y134834D01*
X51943Y135243D01*
X51221Y135386D01*
X50499Y135243D01*
X50272Y135091D01*
X49995Y135505D01*
X50404Y136117D01*
X50548Y136838D01*
X50404Y137560D01*
X49995Y138172D01*
X49384Y138581D01*
X48662Y138725D01*
D02*
G37*
G36*
X64016Y133886D02*
X63294Y133743D01*
X62682Y133334D01*
X62273Y132722D01*
X62130Y132000D01*
X62273Y131278D01*
X62682Y130666D01*
X63294Y130257D01*
X64016Y130114D01*
X64738Y130257D01*
X65350Y130666D01*
X65759Y131278D01*
X65902Y132000D01*
X65759Y132722D01*
X65350Y133334D01*
X64738Y133743D01*
X64016Y133886D01*
D02*
G37*
G36*
X56339Y135228D02*
X55617Y135084D01*
X55005Y134675D01*
X54596Y134063D01*
X54453Y133341D01*
X54596Y132620D01*
X55005Y132008D01*
X55617Y131599D01*
X56339Y131455D01*
X57061Y131599D01*
X57673Y132008D01*
X58082Y132620D01*
X58225Y133341D01*
X58082Y134063D01*
X57673Y134675D01*
X57061Y135084D01*
X56339Y135228D01*
D02*
G37*
%LPD*%
D36*
X20500Y5000D02*
D03*
X95000Y155000D02*
D03*
Y85000D02*
D03*
X5000Y175000D02*
D03*
Y85000D02*
D03*
D37*
X95000Y5000D02*
D03*
D38*
X48839Y119841D02*
D03*
X56339D02*
D03*
X63839Y119841D02*
D03*
Y104841D02*
D03*
X56339D02*
D03*
X48839D02*
D03*
X48839Y112341D02*
D03*
X63839Y112341D02*
D03*
X56339D02*
D03*
X75434Y146624D02*
D03*
X26190Y146500D02*
D03*
X62236Y7500D02*
D03*
X47500D02*
D03*
X75000Y17500D02*
D03*
X80000D02*
D03*
Y12500D02*
D03*
Y7500D02*
D03*
X38000Y16106D02*
D03*
X11964Y173843D02*
D03*
X26531D02*
D03*
X32464D02*
D03*
X47031D02*
D03*
X52964D02*
D03*
X67531D02*
D03*
X73464D02*
D03*
X88031D02*
D03*
X80700Y171900D02*
D03*
X60200D02*
D03*
X39700D02*
D03*
X19200D02*
D03*
X66000Y158500D02*
D03*
X86500D02*
D03*
X45500D02*
D03*
X25000D02*
D03*
X22008Y92341D02*
D03*
X54900Y31800D02*
D03*
X18500Y30500D02*
D03*
X20500Y36000D02*
D03*
X44500Y56500D02*
D03*
X39000Y60500D02*
D03*
Y56500D02*
D03*
Y44500D02*
D03*
Y40500D02*
D03*
X30500Y3500D02*
D03*
X27339Y120341D02*
D03*
M02*
