%FSLAX25Y25*%
%MOIN*%
G70*
G01*
G75*
G04 Layer_Physical_Order=1*
G04 Layer_Color=255*
%ADD10R,0.03600X0.03600*%
%ADD11R,0.03600X0.03600*%
%ADD12R,0.07087X0.07480*%
%ADD13R,0.01575X0.05315*%
%ADD14R,0.08268X0.06299*%
%ADD15R,0.25787X0.25787*%
%ADD16O,0.01378X0.03937*%
%ADD17O,0.03937X0.01378*%
%ADD18R,0.02200X0.02200*%
%ADD19R,0.01181X0.03937*%
%ADD20R,0.01969X0.03150*%
%ADD21R,0.04724X0.07874*%
%ADD22R,0.04528X0.02953*%
%ADD23R,0.03740X0.05512*%
%ADD24R,0.02362X0.06299*%
%ADD25R,0.02362X0.07087*%
%ADD26C,0.00600*%
%ADD27C,0.01500*%
%ADD28C,0.01000*%
%ADD29C,0.00800*%
%ADD30C,0.01200*%
%ADD31C,0.03500*%
%ADD32C,0.01300*%
%ADD33C,0.02500*%
%ADD34C,0.02300*%
%ADD35C,0.02000*%
%ADD36C,0.05906*%
%ADD37R,0.05906X0.05906*%
%ADD38C,0.02500*%
G36*
X46586Y25914D02*
X46457Y25722D01*
X46314Y25000D01*
X46457Y24278D01*
X46866Y23666D01*
X47478Y23257D01*
X48200Y23114D01*
X48922Y23257D01*
X49114Y23386D01*
X52172Y20328D01*
X52172Y19758D01*
X52172D01*
Y13242D01*
X52438D01*
Y11274D01*
X52278Y11243D01*
X51666Y10834D01*
X51257Y10222D01*
X51213Y10000D01*
X44513D01*
Y10407D01*
X36227D01*
Y10000D01*
X25500D01*
Y22500D01*
X30000D01*
Y27500D01*
X45000D01*
X46586Y25914D01*
D02*
G37*
G36*
X24000Y10000D02*
X17000D01*
Y27500D01*
X24000D01*
Y10000D01*
D02*
G37*
G36*
X82500Y2500D02*
X28000D01*
Y9000D01*
X51213D01*
X51257Y8778D01*
X51666Y8166D01*
X52278Y7757D01*
X53000Y7614D01*
X53722Y7757D01*
X54334Y8166D01*
X54500Y8415D01*
X55000D01*
X55166Y8166D01*
X55778Y7757D01*
X56500Y7614D01*
X57222Y7757D01*
X57834Y8166D01*
X58243Y8778D01*
X58287Y9000D01*
X59500D01*
Y13242D01*
X60065D01*
Y19758D01*
X59500D01*
Y22500D01*
X82500D01*
Y2500D01*
D02*
G37*
G36*
X61250Y25500D02*
X49987D01*
X49943Y25722D01*
X49534Y26334D01*
X48922Y26743D01*
X48750Y26777D01*
Y38500D01*
X61250D01*
Y25500D01*
D02*
G37*
G36*
X47000Y54000D02*
X42000D01*
Y37500D01*
X37000D01*
Y45500D01*
X36000Y46500D01*
Y62500D01*
X47000D01*
Y54000D01*
D02*
G37*
G36*
X35000Y55000D02*
X29500D01*
Y47000D01*
Y46500D01*
X28500Y45500D01*
X18500D01*
Y55000D01*
Y64000D01*
X22000Y67500D01*
X35000D01*
Y55000D01*
D02*
G37*
G36*
X35559Y45079D02*
Y35236D01*
X34181Y33858D01*
X31819D01*
X30441Y35236D01*
Y45079D01*
X31819Y46457D01*
X34181D01*
X35559Y45079D01*
D02*
G37*
%LPC*%
G36*
X48647Y19856D02*
X39180D01*
Y18074D01*
X38739Y17838D01*
X38722Y17849D01*
X38000Y17992D01*
X37278Y17849D01*
X36666Y17440D01*
X36257Y16828D01*
X36114Y16106D01*
X36257Y15384D01*
X36666Y14773D01*
X37278Y14364D01*
X38000Y14220D01*
X38722Y14364D01*
X38739Y14375D01*
X39180Y14139D01*
Y12357D01*
X48647D01*
Y19856D01*
D02*
G37*
%LPD*%
D10*
X44500Y60000D02*
D03*
Y65500D02*
D03*
X33000Y30500D02*
D03*
Y25000D02*
D03*
X30500Y12500D02*
D03*
Y7000D02*
D03*
X20500Y45000D02*
D03*
Y39500D02*
D03*
D11*
X39500Y65500D02*
D03*
X34000D02*
D03*
X27500Y30500D02*
D03*
X22000D02*
D03*
X27500Y25000D02*
D03*
X22000D02*
D03*
X51335Y42500D02*
D03*
X56835D02*
D03*
X51335Y47500D02*
D03*
X56835D02*
D03*
X67335Y36665D02*
D03*
X61835D02*
D03*
Y42500D02*
D03*
X67335D02*
D03*
X61835Y47500D02*
D03*
X67335D02*
D03*
D12*
X71866Y6067D02*
D03*
X40370D02*
D03*
D13*
X51000Y16500D02*
D03*
X53559D02*
D03*
X56118D02*
D03*
X58677D02*
D03*
X61236D02*
D03*
D14*
X43913Y16106D02*
D03*
X68323D02*
D03*
D15*
X56339Y112341D02*
D03*
D16*
X69134Y96200D02*
D03*
X66575D02*
D03*
X64016D02*
D03*
X61457D02*
D03*
X58898D02*
D03*
X56339D02*
D03*
X53780D02*
D03*
X51221D02*
D03*
X48662D02*
D03*
X46103D02*
D03*
X43543D02*
D03*
Y128483D02*
D03*
X46103D02*
D03*
X48662D02*
D03*
X51221D02*
D03*
X53780D02*
D03*
X56339D02*
D03*
X58898D02*
D03*
X61457D02*
D03*
X64016D02*
D03*
X66575D02*
D03*
X69134D02*
D03*
D17*
X40197Y99546D02*
D03*
Y102105D02*
D03*
Y104664D02*
D03*
Y107223D02*
D03*
Y109782D02*
D03*
Y112341D02*
D03*
Y114900D02*
D03*
Y117459D02*
D03*
Y120018D02*
D03*
Y122578D02*
D03*
Y125137D02*
D03*
X72481D02*
D03*
Y122578D02*
D03*
Y120018D02*
D03*
Y117459D02*
D03*
Y114900D02*
D03*
Y112341D02*
D03*
Y109782D02*
D03*
Y107223D02*
D03*
Y104664D02*
D03*
Y102105D02*
D03*
Y99546D02*
D03*
D18*
X86500Y161500D02*
D03*
X83000D02*
D03*
X79500D02*
D03*
X76000D02*
D03*
X66000D02*
D03*
X62500D02*
D03*
X59000D02*
D03*
X55500D02*
D03*
X45500D02*
D03*
X42000D02*
D03*
X38500D02*
D03*
X35000D02*
D03*
X25000D02*
D03*
X21500D02*
D03*
X18000D02*
D03*
X14500D02*
D03*
D19*
X83700Y167500D02*
D03*
X81731D02*
D03*
X79763D02*
D03*
X77794D02*
D03*
X63200D02*
D03*
X61231D02*
D03*
X59263D02*
D03*
X57294D02*
D03*
X42700D02*
D03*
X40731D02*
D03*
X38763D02*
D03*
X36794D02*
D03*
X22200D02*
D03*
X20232D02*
D03*
X18263D02*
D03*
X16295D02*
D03*
D20*
X88031Y177342D02*
D03*
X73464D02*
D03*
X67531D02*
D03*
X52964D02*
D03*
X47031D02*
D03*
X32464D02*
D03*
X26531D02*
D03*
X11964D02*
D03*
D21*
X22008Y113625D02*
D03*
X30670D02*
D03*
X30670Y99156D02*
D03*
X22008Y99058D02*
D03*
D22*
X77810Y152624D02*
D03*
X64810D02*
D03*
X77810Y140624D02*
D03*
X64810D02*
D03*
X23500Y140500D02*
D03*
X36500D02*
D03*
X23500Y152500D02*
D03*
X36500D02*
D03*
D23*
X79310Y146624D02*
D03*
X63310D02*
D03*
X22000Y146500D02*
D03*
X38000D02*
D03*
D24*
X27095Y50394D02*
D03*
X38906D02*
D03*
D25*
X33000Y50000D02*
D03*
D26*
X84000Y116000D02*
Y117500D01*
X81481Y120018D02*
X84000Y117500D01*
X72481Y120018D02*
X81481D01*
X59624Y146624D02*
X62683D01*
X53780Y140780D02*
X59624Y146624D01*
X53780Y128483D02*
Y140780D01*
X59000Y155500D02*
X77500D01*
X47500Y144000D02*
X59000Y155500D01*
X47500Y140326D02*
Y144000D01*
X46103Y138929D02*
X47500Y140326D01*
X43543Y138544D02*
X46000Y141000D01*
Y144500D01*
X58785Y157285D01*
Y167022D01*
X59263Y167500D01*
X43543Y128483D02*
Y138544D01*
X46103Y128483D02*
Y138929D01*
X25500Y129500D02*
X30680D01*
X14500Y140500D02*
X25500Y129500D01*
X14500Y140500D02*
Y153000D01*
X18263Y156763D02*
Y161500D01*
X14500Y153000D02*
X18263Y156763D01*
X27680Y125000D02*
X37780Y114900D01*
X20178Y125000D02*
X27680D01*
X15000Y119822D02*
X20178Y125000D01*
X13500Y126500D02*
X28680D01*
X37721Y117459D01*
X29680Y128000D02*
X37662Y120018D01*
X22000Y128000D02*
X29680D01*
X5000Y145000D02*
X22000Y128000D01*
X30680Y129500D02*
X37603Y122578D01*
X26000Y131000D02*
X31500D01*
X16000Y141000D02*
X26000Y131000D01*
X31500D02*
X37363Y125137D01*
X5000Y135000D02*
X13500Y126500D01*
X16000Y152500D02*
X19500Y156000D01*
X36763D02*
X38763Y158000D01*
Y167500D01*
X38500Y161500D02*
X38763Y161763D01*
X19500Y156000D02*
X36763D01*
X16000Y141000D02*
Y152500D01*
X37363Y125137D02*
X40197D01*
X66873Y146624D02*
X68500Y144997D01*
Y140500D02*
Y144997D01*
Y140500D02*
X72000Y137000D01*
X80500D01*
X85000Y141500D01*
Y152000D01*
X62683Y146624D02*
X66873D01*
X85000Y152000D02*
X90500Y157500D01*
X77500Y155500D02*
X79763Y157763D01*
X43543Y90544D02*
Y96200D01*
X41000Y88000D02*
X43543Y90544D01*
X31500Y88000D02*
X41000D01*
X41500Y86500D02*
X46103Y91103D01*
X32000Y86500D02*
X41500D01*
X46103Y91103D02*
Y96200D01*
X42000Y85000D02*
X48662Y91662D01*
X32500Y85000D02*
X42000D01*
X48662Y91662D02*
Y96200D01*
X11750Y68250D02*
X31500Y88000D01*
X13250Y67750D02*
X32000Y86500D01*
X14500Y67000D02*
X32500Y85000D01*
X33000Y83500D02*
X42500D01*
X15750Y66250D02*
X33000Y83500D01*
X42500D02*
X51221Y92221D01*
X43000Y82000D02*
X53780Y92780D01*
X33500Y82000D02*
X43000D01*
X17000Y65500D02*
X33500Y82000D01*
X51221Y92221D02*
Y96200D01*
X53780Y92780D02*
Y96200D01*
X36339Y94839D02*
Y100841D01*
X10000Y68500D02*
X36339Y94839D01*
X15000Y76000D02*
Y119822D01*
X8500Y69500D02*
X15000Y76000D01*
X8500Y68500D02*
Y69500D01*
X10000Y60000D02*
Y68500D01*
X11750Y51750D02*
Y68250D01*
X13250Y43250D02*
Y67750D01*
X14500Y34500D02*
Y67000D01*
X15750Y34250D02*
Y66250D01*
X5000Y65000D02*
X8500Y68500D01*
X5000Y55000D02*
X10000Y60000D01*
X5000Y45000D02*
X11750Y51750D01*
X5000Y35000D02*
X13250Y43250D01*
X17000Y33500D02*
Y65500D01*
X15500Y32000D02*
X17000Y33500D01*
X15500Y15500D02*
Y32000D01*
X15700Y34200D02*
X15750Y34250D01*
X15700Y34003D02*
Y34200D01*
X14000Y32303D02*
X15700Y34003D01*
X14000Y24000D02*
Y32303D01*
X5000Y25000D02*
X14500Y34500D01*
X5000Y15000D02*
X14000Y24000D01*
X5000Y5000D02*
X15500Y15500D01*
X88500Y98000D02*
Y102500D01*
X85000Y98000D02*
Y103500D01*
X79422Y122578D02*
X79500Y122500D01*
X72481Y122578D02*
X79422D01*
X81277Y107223D02*
X85000Y103500D01*
X72481Y107223D02*
X81277D01*
X81218Y109782D02*
X88500Y102500D01*
X78527Y95000D02*
X95000D01*
X73981Y99546D02*
X78527Y95000D01*
X68000Y92000D02*
X69500D01*
X66575Y93425D02*
X68000Y92000D01*
X66575Y93425D02*
Y96200D01*
X69500Y92000D02*
X72500Y89000D01*
X64016Y93484D02*
Y96200D01*
Y93484D02*
X68500Y89000D01*
X59000Y87500D02*
X61457Y89957D01*
X84000Y116000D02*
X95000Y105000D01*
X72481Y117459D02*
X79500D01*
X63000Y135000D02*
X87500D01*
X61457Y133457D02*
X63000Y135000D01*
X84863Y125137D02*
X95000Y115000D01*
X72481Y125137D02*
X84863D01*
X39197Y94841D02*
Y99546D01*
X94500Y175000D02*
X95000D01*
X90500Y171000D02*
X94500Y175000D01*
X90500Y157500D02*
Y171000D01*
X91500Y131500D02*
X95000Y135000D01*
X68000Y131500D02*
X91500D01*
X66575Y130075D02*
X68000Y131500D01*
X66575Y128483D02*
Y130075D01*
X95000Y145000D02*
X99000Y141000D01*
Y132500D02*
Y141000D01*
X96500Y130000D02*
X99000Y132500D01*
X48662Y128483D02*
Y136838D01*
X51221Y128483D02*
Y133500D01*
X72481Y109782D02*
X81218D01*
X64016Y128483D02*
Y132000D01*
X61457Y128483D02*
Y133457D01*
X79763Y157763D02*
Y167500D01*
X18263Y161500D02*
Y167500D01*
X69000Y130000D02*
X96500D01*
X61457Y89957D02*
Y96200D01*
X37603Y102105D02*
X40197D01*
X37662Y120018D02*
X40197D01*
X36339Y100841D02*
X37603Y102105D01*
Y122578D02*
X40197D01*
X37721Y117459D02*
X40197Y117459D01*
X37780Y114900D02*
X40197D01*
D27*
X75434Y146624D02*
X79310D01*
X33810Y146500D02*
X38000D01*
X22313D02*
X26190D01*
X76000Y158500D02*
Y161500D01*
X80026D02*
X83263D01*
X59263D02*
X62500D01*
X38763D02*
X42000D01*
X18263D02*
X21500D01*
X18000D02*
X18263D01*
X66000Y158500D02*
Y161500D01*
X55500Y158500D02*
Y161500D01*
X86500Y158500D02*
Y161500D01*
X35000Y158500D02*
Y161500D01*
X45500Y158500D02*
Y161500D01*
X25000Y158500D02*
Y161500D01*
X14500Y158500D02*
Y161500D01*
X29339Y99156D02*
X29339Y99365D01*
Y97826D02*
X30670Y99156D01*
X29339Y92318D02*
Y97826D01*
X22008Y113625D02*
X22008Y120672D01*
D28*
X38000Y16106D02*
X43913D01*
X11964Y173843D02*
Y177342D01*
X26531Y173843D02*
Y177342D01*
X32464Y173843D02*
Y177342D01*
X47031Y173843D02*
Y177342D01*
X52964Y173843D02*
Y177342D01*
X67531Y173843D02*
Y177342D01*
X73464Y173843D02*
Y177342D01*
X88031Y173843D02*
Y177342D01*
X81731Y167500D02*
Y170869D01*
X80700Y171900D02*
X81731Y170869D01*
X61231Y167500D02*
Y170869D01*
X60200Y171900D02*
X61231Y170869D01*
X40731Y167500D02*
Y170869D01*
X39700Y171900D02*
X40731Y170869D01*
X19200Y171900D02*
X20232Y170869D01*
Y167500D02*
Y170869D01*
X53559Y10059D02*
Y16500D01*
X56118Y9882D02*
Y16500D01*
Y9882D02*
X56500Y9500D01*
X53000D02*
X53559Y10059D01*
D29*
X69500Y95000D02*
X73000D01*
X76500Y101500D02*
X79500D01*
X75895Y102105D02*
X76500Y101500D01*
X72481Y102105D02*
X75895D01*
X79164Y104664D02*
X79500Y105000D01*
X72481Y104664D02*
X79164D01*
D30*
X83700Y167500D02*
X86700D01*
X42700D02*
X45700D01*
X63200D02*
X66200D01*
X22200D02*
X25200D01*
X46829Y42500D02*
X51335D01*
Y47500D02*
Y52006D01*
X34662Y104664D02*
X40197D01*
X31589Y101591D02*
X34662Y104664D01*
X23339Y110841D02*
X26957Y107223D01*
X40197D01*
D31*
X27339Y120341D02*
X31328Y116352D01*
X22008Y92341D02*
Y99058D01*
X27500Y25000D02*
Y30500D01*
X33000D01*
X37500D01*
X42000D01*
X67335Y36665D02*
Y42500D01*
Y47500D01*
Y36665D02*
X71335D01*
D32*
X72481Y114900D02*
X75981D01*
X63839Y112341D02*
X72481D01*
X56339Y128483D02*
Y133341D01*
X58898Y91400D02*
Y96200D01*
X36339Y112341D02*
X40197D01*
X30398Y109782D02*
X53780D01*
X56339Y112341D01*
X58898Y114900D02*
Y128483D01*
X56339Y112341D02*
X58898Y114900D01*
X56339Y112341D02*
X63839D01*
X56339Y96200D02*
X56339Y104841D01*
Y112341D01*
X29339Y110841D02*
X30398Y109782D01*
D33*
X56835Y42500D02*
X61835D01*
X56835Y47500D02*
X61835D01*
D34*
X33000Y30500D02*
Y50000D01*
D35*
X18500Y30500D02*
X22000D01*
X20500Y36000D02*
Y39500D01*
X44500Y56500D02*
Y60000D01*
X39500Y65500D02*
X45000D01*
X30500Y3500D02*
Y7000D01*
D36*
X20500Y5000D02*
D03*
X95000Y175000D02*
D03*
Y165000D02*
D03*
Y155000D02*
D03*
Y145000D02*
D03*
Y135000D02*
D03*
Y125000D02*
D03*
Y115000D02*
D03*
Y105000D02*
D03*
Y95000D02*
D03*
Y85000D02*
D03*
Y75000D02*
D03*
Y65000D02*
D03*
Y55000D02*
D03*
Y45000D02*
D03*
Y35000D02*
D03*
Y25000D02*
D03*
Y15000D02*
D03*
X5000Y175000D02*
D03*
Y165000D02*
D03*
Y155000D02*
D03*
Y145000D02*
D03*
Y135000D02*
D03*
Y125000D02*
D03*
Y115000D02*
D03*
Y105000D02*
D03*
Y95000D02*
D03*
Y85000D02*
D03*
Y75000D02*
D03*
Y65000D02*
D03*
Y55000D02*
D03*
Y45000D02*
D03*
Y35000D02*
D03*
Y25000D02*
D03*
Y15000D02*
D03*
D37*
X20500D02*
D03*
X95000Y5000D02*
D03*
X5000D02*
D03*
D38*
X48839Y119841D02*
D03*
X56339D02*
D03*
X63839Y119841D02*
D03*
Y104841D02*
D03*
X56339D02*
D03*
X48839D02*
D03*
X48839Y112341D02*
D03*
X63839Y112341D02*
D03*
X56339D02*
D03*
X75434Y146624D02*
D03*
X66873D02*
D03*
X33810Y146500D02*
D03*
X26190D02*
D03*
X62236Y7500D02*
D03*
X47500D02*
D03*
X75000Y17500D02*
D03*
X80000D02*
D03*
Y12500D02*
D03*
Y7500D02*
D03*
X38000Y16106D02*
D03*
X85000Y98000D02*
D03*
X68500Y89000D02*
D03*
X72500D02*
D03*
X59000Y87500D02*
D03*
X73000Y95000D02*
D03*
X79500Y122500D02*
D03*
Y117500D02*
D03*
X87500Y135000D02*
D03*
X64016Y132000D02*
D03*
X11964Y173843D02*
D03*
X26531D02*
D03*
X32464D02*
D03*
X47031D02*
D03*
X52964D02*
D03*
X67531D02*
D03*
X73464D02*
D03*
X88031D02*
D03*
X51221Y133500D02*
D03*
X48662Y136838D02*
D03*
X88500Y98000D02*
D03*
X79500Y105000D02*
D03*
Y101500D02*
D03*
X86700Y167500D02*
D03*
X45700D02*
D03*
X80700Y171900D02*
D03*
X60200D02*
D03*
X39700D02*
D03*
X19200D02*
D03*
X66200Y167500D02*
D03*
X25200D02*
D03*
X76000Y158500D02*
D03*
X55500D02*
D03*
X66000D02*
D03*
X86500D02*
D03*
X45500D02*
D03*
X35000D02*
D03*
X14500D02*
D03*
X25000D02*
D03*
X59121Y141124D02*
D03*
X42190Y141000D02*
D03*
X39197Y94841D02*
D03*
X29339Y92318D02*
D03*
X22008Y120672D02*
D03*
X22008Y92341D02*
D03*
X75981Y114900D02*
D03*
X56500Y9500D02*
D03*
X53000D02*
D03*
X37500Y30500D02*
D03*
X42000D02*
D03*
X48200Y25000D02*
D03*
X71335Y36665D02*
D03*
X54900Y31800D02*
D03*
X46829Y42500D02*
D03*
X51335Y52006D02*
D03*
X18500Y30500D02*
D03*
X20500Y36000D02*
D03*
X44500Y56500D02*
D03*
X56339Y133341D02*
D03*
X58898Y91400D02*
D03*
X36339Y112341D02*
D03*
X39000Y60500D02*
D03*
Y56500D02*
D03*
Y44500D02*
D03*
Y40500D02*
D03*
X30500Y3500D02*
D03*
X22000Y64000D02*
D03*
X27000D02*
D03*
X32000D02*
D03*
X27000Y58000D02*
D03*
X22000D02*
D03*
X32000Y58500D02*
D03*
X27339Y120341D02*
D03*
M02*
