M48
;Layer_Color=9474304
;FILE_FORMAT=2:5
INCH,LZ
;TYPE=PLATED
T1F00S00C0.01500
T2F00S00C0.03543
%
T01
X00305Y00035
X0038Y0016106
X00375Y00305
X0042
X0039Y00405
Y00445
X0046829Y00425
X00445Y00565
X0039
X0032Y00585
X0027Y0058
X0022
X00205Y0036
X00185Y00305
X00475Y00075
X0053Y00095
X00565
X0062236Y00075
X008
Y00125
Y00175
X0075
X0071335Y0036665
X00549Y00318
X00482Y0025
X0051335Y0052006
X0059Y00875
X0058898Y00914
X00685Y0089
X00725
X0073Y0095
X00795Y01015
Y0105
X0085Y0098
X00885
X00795Y01175
Y01225
X0075981Y01149
X0063839Y0112341
Y0119841
X0056339Y0119841
X0048839
Y0112341
X0048839Y0104841
X0056339
X0063839
X0056339Y0112341
X0056339Y0133341
X0051221Y01335
X0048662Y0136838
X0059121Y0141124
X0066873Y0146624
X0075434
X0076Y01585
X0066
X00662Y01675
X0067531Y0173843
X0073464
X00807Y01719
X0088031Y0173843
X00867Y01675
X00865Y01585
X00875Y0135
X0064016Y0132
X00555Y01585
X0052964Y0173843
X00602Y01719
X0047031Y0173843
X00457Y01675
X00455Y01585
X0035
X0025
X00252Y01675
X0026531Y0173843
X0032464
X00397Y01719
X00192
X0011964Y0173843
X00145Y01585
X002619Y01465
X003381
X004219Y0141
X0036339Y0112341
X0027339Y0120341
X0022008Y0120672
X0022008Y0092341
X0029339Y0092318
X0039197Y0094841
X0039Y00605
X0032Y0064
X0027
X0022
T02
X0005Y0005
Y0015
Y0025
Y0035
Y0045
Y0055
X00205Y0015
Y0005
X0095
Y0015
Y0025
Y0035
Y0045
Y0055
Y0065
Y0075
Y0085
Y0095
Y0105
Y0115
Y0125
Y0135
Y0145
Y0155
Y0165
Y0175
X0005
Y0165
Y0155
Y0145
Y0135
Y0125
Y0115
Y0105
Y0095
Y0085
Y0075
Y0065
M30
