%FSLAX25Y25*%
%MOIN*%
G70*
G01*
G75*
G04 Layer_Color=255*
%ADD10R,0.03600X0.03600*%
%ADD11R,0.03600X0.03600*%
%ADD12R,0.07087X0.07480*%
%ADD13R,0.01575X0.05315*%
%ADD14R,0.08268X0.06299*%
%ADD15R,0.25787X0.25787*%
%ADD16O,0.01378X0.03937*%
%ADD17O,0.03937X0.01378*%
%ADD18R,0.02200X0.02200*%
%ADD19R,0.01181X0.03937*%
%ADD20R,0.01969X0.03150*%
%ADD21R,0.04724X0.07874*%
%ADD22R,0.04528X0.02953*%
%ADD23R,0.03740X0.05512*%
%ADD24R,0.02362X0.06299*%
%ADD25R,0.02362X0.07087*%
%ADD26C,0.00600*%
%ADD27C,0.01500*%
%ADD28C,0.01000*%
%ADD29C,0.00800*%
%ADD30C,0.01200*%
%ADD31C,0.03500*%
%ADD32C,0.01300*%
%ADD33C,0.02500*%
%ADD34C,0.02300*%
%ADD35C,0.02000*%
%ADD36C,0.05906*%
%ADD37R,0.05906X0.05906*%
%ADD38C,0.02500*%
%ADD39R,0.02200X0.02200*%
%ADD40R,0.03937X0.01260*%
%ADD41R,0.01260X0.03937*%
%ADD42R,0.09449X0.09449*%
%ADD43R,0.01963X0.04400*%
%ADD44R,0.03700X0.01600*%
D10*
X56339Y129841D02*
D03*
X56339Y124341D02*
D03*
X58839Y95341D02*
D03*
Y100841D02*
D03*
X38313Y146500D02*
D03*
Y141000D02*
D03*
X62997Y146624D02*
D03*
Y141124D02*
D03*
D11*
X22839Y95341D02*
D03*
X28339D02*
D03*
X22339Y117341D02*
D03*
X27839D02*
D03*
X39839Y112341D02*
D03*
X45339Y112341D02*
D03*
X72839Y114841D02*
D03*
X67339D02*
D03*
X72839Y109841D02*
D03*
X67339Y109841D02*
D03*
X32500Y25500D02*
D03*
X27000D02*
D03*
X32500Y30500D02*
D03*
X27000D02*
D03*
D18*
X59100Y14000D02*
D03*
X62600D02*
D03*
X50600D02*
D03*
X47100D02*
D03*
X86500Y161500D02*
D03*
X83000D02*
D03*
X79500D02*
D03*
X76000D02*
D03*
X66000D02*
D03*
X62500D02*
D03*
X59000D02*
D03*
X55500D02*
D03*
X45500D02*
D03*
X42000D02*
D03*
X38500D02*
D03*
X35000D02*
D03*
X25000D02*
D03*
X21500D02*
D03*
X18000D02*
D03*
X14500D02*
D03*
D19*
X16300Y167500D02*
D03*
X18269D02*
D03*
X20237D02*
D03*
X22206D02*
D03*
X36800D02*
D03*
X38769D02*
D03*
X40737D02*
D03*
X42706D02*
D03*
X57300D02*
D03*
X59268D02*
D03*
X61237D02*
D03*
X63205D02*
D03*
X77800D02*
D03*
X79769D02*
D03*
X81737D02*
D03*
X83706D02*
D03*
D20*
X11969Y177342D02*
D03*
X26536D02*
D03*
X32469D02*
D03*
X47036D02*
D03*
X52969D02*
D03*
X67536D02*
D03*
X73469D02*
D03*
X88036D02*
D03*
D36*
X20500Y5000D02*
D03*
X95000Y175000D02*
D03*
Y165000D02*
D03*
Y155000D02*
D03*
Y145000D02*
D03*
Y135000D02*
D03*
Y125000D02*
D03*
Y115000D02*
D03*
Y105000D02*
D03*
Y95000D02*
D03*
Y85000D02*
D03*
Y75000D02*
D03*
Y65000D02*
D03*
Y55000D02*
D03*
Y45000D02*
D03*
Y35000D02*
D03*
Y25000D02*
D03*
Y15000D02*
D03*
X5000Y175000D02*
D03*
Y165000D02*
D03*
Y155000D02*
D03*
Y145000D02*
D03*
Y135000D02*
D03*
Y125000D02*
D03*
Y115000D02*
D03*
Y105000D02*
D03*
Y95000D02*
D03*
Y85000D02*
D03*
Y75000D02*
D03*
Y65000D02*
D03*
Y55000D02*
D03*
Y45000D02*
D03*
Y35000D02*
D03*
Y25000D02*
D03*
Y15000D02*
D03*
D37*
X20500D02*
D03*
X95000Y5000D02*
D03*
X5000D02*
D03*
D39*
X53400Y14000D02*
D03*
Y17500D02*
D03*
X56300Y14000D02*
D03*
Y17500D02*
D03*
D40*
X62971Y35639D02*
D03*
Y33079D02*
D03*
Y30520D02*
D03*
Y27961D02*
D03*
X46829Y35639D02*
D03*
Y33079D02*
D03*
Y30520D02*
D03*
Y27961D02*
D03*
D41*
X51061Y23729D02*
D03*
X53620Y23729D02*
D03*
X56179D02*
D03*
X58739D02*
D03*
X58739Y39871D02*
D03*
X56179D02*
D03*
X53620D02*
D03*
X51061D02*
D03*
D42*
X54900Y31800D02*
D03*
M02*
