%FSLAX25Y25*%
%MOIN*%
G70*
G01*
G75*
G04 Layer_Color=8388736*
%ADD10R,0.03600X0.03600*%
%ADD11R,0.03600X0.03600*%
%ADD12R,0.07087X0.07480*%
%ADD13R,0.01575X0.05315*%
%ADD14R,0.08268X0.06299*%
%ADD15R,0.25787X0.25787*%
%ADD16O,0.01378X0.03937*%
%ADD17O,0.03937X0.01378*%
%ADD18R,0.02200X0.02200*%
%ADD19R,0.01181X0.03937*%
%ADD20R,0.01969X0.03150*%
%ADD21R,0.04724X0.07874*%
%ADD22R,0.04528X0.02953*%
%ADD23R,0.03740X0.05512*%
%ADD24R,0.02362X0.06299*%
%ADD25R,0.02362X0.07087*%
%ADD26C,0.00600*%
%ADD27C,0.01500*%
%ADD28C,0.01000*%
%ADD29C,0.00800*%
%ADD30C,0.01200*%
%ADD31C,0.03500*%
%ADD32C,0.01300*%
%ADD33C,0.02500*%
%ADD34C,0.02300*%
%ADD35C,0.02000*%
%ADD36C,0.05906*%
%ADD37R,0.05906X0.05906*%
%ADD38C,0.02500*%
%ADD39R,0.02200X0.02200*%
%ADD40R,0.03937X0.01260*%
%ADD41R,0.01260X0.03937*%
%ADD42R,0.09449X0.09449*%
%ADD43R,0.01963X0.04400*%
%ADD44R,0.03700X0.01600*%
%ADD45C,0.00984*%
%ADD46C,0.00787*%
%ADD47R,0.04400X0.04400*%
%ADD48R,0.04400X0.04400*%
%ADD49R,0.07887X0.08280*%
%ADD50R,0.02375X0.06115*%
%ADD51R,0.09068X0.07099*%
%ADD52R,0.26587X0.26587*%
%ADD53O,0.02178X0.04737*%
%ADD54O,0.04737X0.02178*%
%ADD55R,0.03000X0.03000*%
%ADD56R,0.01981X0.04737*%
%ADD57R,0.02769X0.03950*%
%ADD58R,0.05524X0.08674*%
%ADD59R,0.05328X0.03753*%
%ADD60R,0.04540X0.06312*%
%ADD61R,0.03162X0.07099*%
%ADD62R,0.03162X0.07887*%
%ADD63C,0.06706*%
%ADD64R,0.06706X0.06706*%
G36*
X34233Y46854D02*
X34285Y46844D01*
X34334Y46827D01*
X34381Y46804D01*
X34425Y46775D01*
X34465Y46740D01*
X35842Y45362D01*
X35877Y45323D01*
X35906Y45279D01*
X35929Y45232D01*
X35946Y45182D01*
X35956Y45131D01*
X35960Y45079D01*
Y35236D01*
X35956Y35184D01*
X35946Y35133D01*
X35929Y35083D01*
X35906Y35036D01*
X35877Y34992D01*
X35842Y34953D01*
X34465Y33575D01*
X34425Y33540D01*
X34381Y33511D01*
X34334Y33488D01*
X34285Y33471D01*
X34233Y33461D01*
X34181Y33457D01*
X31819D01*
X31767Y33461D01*
X31715Y33471D01*
X31666Y33488D01*
X31618Y33511D01*
X31575Y33540D01*
X31535Y33575D01*
X30158Y34953D01*
X30123Y34992D01*
X30094Y35036D01*
X30071Y35083D01*
X30054Y35133D01*
X30044Y35184D01*
X30040Y35236D01*
Y45079D01*
X30044Y45131D01*
X30054Y45182D01*
X30071Y45232D01*
X30094Y45279D01*
X30123Y45323D01*
X30158Y45362D01*
X31535Y46740D01*
X31575Y46775D01*
X31618Y46804D01*
X31666Y46827D01*
X31715Y46844D01*
X31767Y46854D01*
X31819Y46858D01*
X34181D01*
X34233Y46854D01*
D02*
G37*
D47*
X44500Y60000D02*
D03*
Y65500D02*
D03*
X33000Y30500D02*
D03*
Y25000D02*
D03*
X30500Y12500D02*
D03*
Y7000D02*
D03*
X20500Y45000D02*
D03*
Y39500D02*
D03*
D48*
X39500Y65500D02*
D03*
X34000D02*
D03*
X27500Y30500D02*
D03*
X22000D02*
D03*
X27500Y25000D02*
D03*
X22000D02*
D03*
X51335Y42500D02*
D03*
X56835D02*
D03*
X51335Y47500D02*
D03*
X56835D02*
D03*
X67335Y36665D02*
D03*
X61835D02*
D03*
Y42500D02*
D03*
X67335D02*
D03*
X61835Y47500D02*
D03*
X67335D02*
D03*
D49*
X71866Y6067D02*
D03*
X40370D02*
D03*
D50*
X51000Y16500D02*
D03*
X53559D02*
D03*
X56118D02*
D03*
X58677D02*
D03*
X61236D02*
D03*
D51*
X43913Y16106D02*
D03*
X68323D02*
D03*
D52*
X56339Y112341D02*
D03*
D53*
X69134Y96200D02*
D03*
X66575D02*
D03*
X64016D02*
D03*
X61457D02*
D03*
X58898D02*
D03*
X56339D02*
D03*
X53780D02*
D03*
X51221D02*
D03*
X48662D02*
D03*
X46103D02*
D03*
X43543D02*
D03*
Y128483D02*
D03*
X46103D02*
D03*
X48662D02*
D03*
X51221D02*
D03*
X53780D02*
D03*
X56339D02*
D03*
X58898D02*
D03*
X61457D02*
D03*
X64016D02*
D03*
X66575D02*
D03*
X69134D02*
D03*
D54*
X40197Y99546D02*
D03*
Y102105D02*
D03*
Y104664D02*
D03*
Y107223D02*
D03*
Y109782D02*
D03*
Y112341D02*
D03*
Y114900D02*
D03*
Y117459D02*
D03*
Y120018D02*
D03*
Y122578D02*
D03*
Y125137D02*
D03*
X72481D02*
D03*
Y122578D02*
D03*
Y120018D02*
D03*
Y117459D02*
D03*
Y114900D02*
D03*
Y112341D02*
D03*
Y109782D02*
D03*
Y107223D02*
D03*
Y104664D02*
D03*
Y102105D02*
D03*
Y99546D02*
D03*
D55*
X86500Y161500D02*
D03*
X83000D02*
D03*
X79500D02*
D03*
X76000D02*
D03*
X66000D02*
D03*
X62500D02*
D03*
X59000D02*
D03*
X55500D02*
D03*
X45500D02*
D03*
X42000D02*
D03*
X38500D02*
D03*
X35000D02*
D03*
X25000D02*
D03*
X21500D02*
D03*
X18000D02*
D03*
X14500D02*
D03*
D56*
X83700Y167500D02*
D03*
X81731D02*
D03*
X79763D02*
D03*
X77794D02*
D03*
X63200D02*
D03*
X61231D02*
D03*
X59263D02*
D03*
X57294D02*
D03*
X42700D02*
D03*
X40731D02*
D03*
X38763D02*
D03*
X36794D02*
D03*
X22200D02*
D03*
X20232D02*
D03*
X18263D02*
D03*
X16295D02*
D03*
D57*
X88031Y177342D02*
D03*
X73464D02*
D03*
X67531D02*
D03*
X52964D02*
D03*
X47031D02*
D03*
X32464D02*
D03*
X26531D02*
D03*
X11964D02*
D03*
D58*
X22008Y113625D02*
D03*
X30670D02*
D03*
X30670Y99156D02*
D03*
X22008Y99058D02*
D03*
D59*
X77810Y152624D02*
D03*
X64810D02*
D03*
X77810Y140624D02*
D03*
X64810D02*
D03*
X23500Y140500D02*
D03*
X36500D02*
D03*
X23500Y152500D02*
D03*
X36500D02*
D03*
D60*
X79310Y146624D02*
D03*
X63310D02*
D03*
X22000Y146500D02*
D03*
X38000D02*
D03*
D61*
X27095Y50394D02*
D03*
X38906D02*
D03*
D62*
X33000Y50000D02*
D03*
D63*
X20500Y5000D02*
D03*
X95000Y175000D02*
D03*
Y165000D02*
D03*
Y155000D02*
D03*
Y145000D02*
D03*
Y135000D02*
D03*
Y125000D02*
D03*
Y115000D02*
D03*
Y105000D02*
D03*
Y95000D02*
D03*
Y85000D02*
D03*
Y75000D02*
D03*
Y65000D02*
D03*
Y55000D02*
D03*
Y45000D02*
D03*
Y35000D02*
D03*
Y25000D02*
D03*
Y15000D02*
D03*
X5000Y175000D02*
D03*
Y165000D02*
D03*
Y155000D02*
D03*
Y145000D02*
D03*
Y135000D02*
D03*
Y125000D02*
D03*
Y115000D02*
D03*
Y105000D02*
D03*
Y95000D02*
D03*
Y85000D02*
D03*
Y75000D02*
D03*
Y65000D02*
D03*
Y55000D02*
D03*
Y45000D02*
D03*
Y35000D02*
D03*
Y25000D02*
D03*
Y15000D02*
D03*
D64*
X20500D02*
D03*
X95000Y5000D02*
D03*
X5000D02*
D03*
M02*
